<svg width="22" height="22" viewBox="0 0 22 22" fill="none" xmlns="http://www.w3.org/2000/svg">
    <path id="Vector"
          d="M8.1433 15.4518L8.8473 15.3306C8.9837 15.3064 9.1465 15.2711 9.3346 15.2227C11.66 14.6388 13.2 12.8982 13.2 11.0165C13.2 8.66452 10.8064 6.60993 7.7 6.60993C4.5936 6.60993 2.2 8.66452 2.2 11.0165C2.2 12.3584 2.9722 13.6363 4.3241 14.4868L4.3637 14.5088L5.5 15.1367V18.1806L8.1433 15.4518ZM9.2235 17.5009L5.1898 21.6651C5.03736 21.8226 4.84145 21.931 4.62716 21.9763C4.41287 22.0216 4.18996 22.0018 3.98697 21.9194C3.78399 21.837 3.61017 21.6959 3.48778 21.514C3.3654 21.3321 3.30001 21.1177 3.3 20.8984V16.4367C3.25086 16.4101 3.20244 16.3822 3.1548 16.353C1.2419 15.15 0 13.2077 0 11.0165C0 7.36566 3.4474 4.40662 7.7 4.40662C11.9526 4.40662 15.4 7.36566 15.4 11.0165C15.4 14.0197 13.0669 16.5557 9.8714 17.3599C9.65724 17.4148 9.44113 17.4619 9.2235 17.5009ZM7.6296 3.30496C8.9606 1.3297 11.451 0 14.3 0C18.5526 0 22 2.95905 22 6.60993C22 8.80112 20.757 10.7433 18.8452 11.9463C18.7976 11.9756 18.7491 12.0035 18.7 12.0301V16.4918C18.7 16.7111 18.6346 16.9255 18.5122 17.1074C18.3898 17.2892 18.216 17.4304 18.013 17.5128C17.81 17.5951 17.5871 17.6149 17.3728 17.5696C17.1586 17.5243 16.9626 17.416 16.8102 17.2585L14.9017 15.2888L16.049 13.308L16.5 13.774V10.7301L17.6363 10.1022L17.6759 10.0801C19.0289 9.22966 19.8 7.95175 19.8 6.60993C19.8 4.2579 17.4064 2.20331 14.3 2.20331C12.892 2.20331 11.6314 2.62524 10.6733 3.30496H7.6296Z"
          fill="#5DC9F4"/>
</svg>
