<svg width="24" height="24" viewBox="0 0 24 24" fill="none" xmlns="http://www.w3.org/2000/svg">
    <g id="Group">
        <path id="Vector"
              d="M1.99891 7.87504C1.68448 7.56538 1.43432 7.19628 1.26287 6.78906C1.09143 6.38184 1.00209 5.94457 1.00004 5.50251C0.99798 5.06045 1.08324 4.62236 1.25089 4.21355C1.41854 3.80474 1.66526 3.43331 1.97679 3.12072C2.28833 2.80813 2.6585 2.56058 3.06593 2.39236C3.47337 2.22415 3.90998 2.1386 4.35055 2.14066C4.79112 2.14273 5.22692 2.23236 5.63277 2.40439C6.03861 2.57641 6.40647 2.82742 6.71508 3.14292L20.8659 17.3416C21.4678 17.9739 21.7991 18.8175 21.7891 19.6918C21.7792 20.5661 21.4286 21.4018 20.8125 22.0202C20.1964 22.6385 19.3636 22.9905 18.4922 23.0007C17.6209 23.0109 16.7801 22.6786 16.1497 22.0749L1.99891 7.87504Z"
              stroke="#5DC9F4" stroke-width="1.5"/>
        <path id="Vector_2" d="M4.49219 10.2834L9.11928 5.64062" stroke="#5DC9F4" stroke-width="1.5" stroke-linecap="round"/>
        <path id="Vector_3"
              d="M16.1768 1.35695C16.2177 1.25178 16.2893 1.16145 16.3821 1.09776C16.475 1.03407 16.5849 1 16.6974 1C16.8099 1 16.9198 1.03407 17.0126 1.09776C17.1055 1.16145 17.1771 1.25178 17.2179 1.35695L17.7153 2.6279C17.7431 2.69981 17.7854 2.76518 17.8395 2.81991C17.8937 2.87463 17.9585 2.91754 18.03 2.94593L19.292 3.44735C19.3965 3.48912 19.4862 3.56139 19.5493 3.65481C19.6124 3.74824 19.6462 3.85852 19.6462 3.9714C19.6462 4.08428 19.6124 4.19456 19.5493 4.28798C19.4862 4.38141 19.3965 4.45368 19.292 4.49545L18.0311 4.99686C17.9597 5.02517 17.8948 5.0679 17.8405 5.12241C17.7861 5.17692 17.7436 5.24203 17.7153 5.31373L17.2179 6.58352C17.1771 6.68869 17.1055 6.77902 17.0126 6.84271C16.9198 6.9064 16.8099 6.94047 16.6974 6.94047C16.5849 6.94047 16.475 6.9064 16.3821 6.84271C16.2893 6.77902 16.2177 6.68869 16.1768 6.58352L15.6794 5.31257C15.6512 5.24087 15.6086 5.17575 15.5543 5.12125C15.5 5.06674 15.4351 5.02401 15.3636 4.9957L14.1027 4.49429C13.9982 4.45252 13.9086 4.38025 13.8455 4.28682C13.7823 4.1934 13.7486 4.08311 13.7486 3.97024C13.7486 3.85736 13.7823 3.74708 13.8455 3.65365C13.9086 3.56023 13.9982 3.48796 14.1027 3.44619L15.3636 2.94477C15.4352 2.91633 15.5002 2.87342 15.5545 2.81871C15.6088 2.764 15.6513 2.69865 15.6794 2.62674L16.1768 1.35695ZM20.6501 9.27632C20.691 9.17115 20.7625 9.08082 20.8554 9.01713C20.9483 8.95344 21.0581 8.91937 21.1706 8.91937C21.2831 8.91937 21.393 8.95344 21.4859 9.01713C21.5788 9.08082 21.6503 9.17115 21.6912 9.27632L21.8716 9.73943C21.9295 9.88452 22.0428 9.99943 22.1874 10.0563L22.6478 10.2397C22.752 10.2817 22.8412 10.3539 22.9041 10.4472C22.9669 10.5405 23.0005 10.6505 23.0005 10.7632C23.0005 10.8758 22.9669 10.9858 22.9041 11.0791C22.8412 11.1724 22.752 11.2447 22.6478 11.2866L22.1874 11.47C22.116 11.4983 22.0511 11.5411 21.9968 11.5956C21.9424 11.6501 21.8999 11.7152 21.8716 11.7869L21.6912 12.2512C21.6503 12.3563 21.5788 12.4467 21.4859 12.5103C21.393 12.574 21.2831 12.6081 21.1706 12.6081C21.0581 12.6081 20.9483 12.574 20.8554 12.5103C20.7625 12.4467 20.691 12.3563 20.6501 12.2512L20.4685 11.7869C20.4404 11.7153 20.398 11.6502 20.3439 11.5957C20.2897 11.5412 20.2251 11.4985 20.1538 11.47L19.6934 11.2866C19.5893 11.2447 19.5 11.1724 19.4372 11.0791C19.3743 10.9858 19.3407 10.8758 19.3407 10.7632C19.3407 10.6505 19.3743 10.5405 19.4372 10.4472C19.5 10.3539 19.5893 10.2817 19.6934 10.2397L20.1538 10.0563C20.2251 10.0279 20.2897 9.98507 20.3439 9.93057C20.398 9.87607 20.4404 9.81102 20.4685 9.73943L20.6501 9.27516V9.27632ZM3.49049 16.4459C3.53136 16.3407 3.60292 16.2504 3.69579 16.1867C3.78867 16.123 3.89855 16.0889 4.01104 16.0889C4.12354 16.0889 4.23341 16.123 4.32629 16.1867C4.41917 16.2504 4.49072 16.3407 4.53159 16.4459L4.7132 16.9102C4.74098 16.9819 4.78329 17.0471 4.83744 17.1017C4.8916 17.1562 4.95643 17.1989 5.02785 17.227L5.48824 17.4093C5.59275 17.451 5.68237 17.5233 5.74551 17.6167C5.80865 17.7101 5.8424 17.8204 5.8424 17.9333C5.8424 18.0462 5.80865 18.1565 5.74551 18.2499C5.68237 18.3433 5.59275 18.4156 5.48824 18.4574L5.02785 18.6407C4.95657 18.6691 4.89186 18.7119 4.83774 18.7664C4.78362 18.8209 4.74123 18.886 4.7132 18.9576L4.53159 19.4219C4.49072 19.5271 4.41917 19.6174 4.32629 19.6811C4.23341 19.7448 4.12354 19.7788 4.01104 19.7788C3.89855 19.7788 3.78867 19.7448 3.69579 19.6811C3.60292 19.6174 3.53136 19.5271 3.49049 19.4219L3.30888 18.9576C3.28086 18.886 3.23847 18.8209 3.18435 18.7664C3.13022 18.7119 3.06551 18.6691 2.99424 18.6407L2.53384 18.4574C2.42933 18.4156 2.33971 18.3433 2.27657 18.2499C2.21344 18.1565 2.17969 18.0462 2.17969 17.9333C2.17969 17.8204 2.21344 17.7101 2.27657 17.6167C2.33971 17.5233 2.42933 17.451 2.53384 17.4093L2.99424 17.227C3.06563 17.1985 3.1304 17.1556 3.18453 17.1009C3.23866 17.0461 3.28099 16.9808 3.30888 16.909L3.49049 16.4459Z"
              stroke="#5DC9F4"/>
    </g>
</svg>
