<svg width="25" height="12" viewBox="0 0 25 12" fill="none" xmlns="http://www.w3.org/2000/svg">
    <path d="M12.1698 12C11.4514 12 10.8704 11.7126 10.8704 11.3582C10.8704 11.0039 11.4514 10.7173 12.1697 10.7173C12.888 10.7173 13.4707 11.004 13.4707 11.3582C13.4707 11.7125 12.888 12 12.1697 12L12.1698 12ZM12.2198 10.1488C11.9842 7.9099 10.9757 6.2242 9.75616 6.2242C9.45368 6.2242 9.15264 6.33531 8.88378 6.52534C8.95264 5.42047 8.62251 4.71429 7.82459 4.74488C7.53572 4.75594 7.19956 4.86186 6.85715 5.04519C7.93823 3.71823 9.99672 2.81385 12.3749 2.81385C14.7532 2.81385 16.8117 3.71823 17.8927 5.04519C17.5504 4.86189 17.216 4.75597 16.927 4.74491C16.0583 4.71161 15.7061 5.53292 15.8662 6.81335C15.5139 6.44986 15.1081 6.22425 14.6818 6.22425C13.4622 6.22425 12.4555 7.90993 12.2199 10.1488L12.2198 10.1488ZM4.5203 4.24056C1.77326 3.80148 0 3.13614 0 2.39836C0 1.07757 5.59449 -5.24521e-05 12.5 0C19.4055 5.24521e-05 25 1.07757 25 2.39836C25 3.13609 23.2267 3.80148 20.4797 4.24056C21.9287 3.9004 22.8183 3.47072 22.8183 2.99812C22.8183 1.90778 18.2009 1.02849 12.5 1.02849C6.79919 1.02844 2.18174 1.90778 2.18174 2.99812C2.18174 3.47072 3.0713 3.90048 4.5203 4.24056ZM8.19822 3.87686C6.69035 3.63851 5.7045 3.29427 5.7045 2.8912C5.7045 2.17402 8.7504 1.58463 12.5 1.58463C16.2496 1.58463 19.2954 2.17402 19.2954 2.89118C19.2954 3.29421 18.3097 3.63846 16.8017 3.87681C17.5992 3.69156 18.1111 3.47135 18.1111 3.21281C18.1111 2.62081 15.5954 2.14161 12.5 2.14161C9.40457 2.14161 6.88886 2.62078 6.88886 3.21286C6.88886 3.47135 7.40084 3.69156 8.19817 3.87681L8.19822 3.87686Z"
          fill="#5DC9F4"/>
</svg>
