<svg width="401" height="388" viewBox="0 0 401 388" fill="none" xmlns="http://www.w3.org/2000/svg">
    <path fill-rule="evenodd" clip-rule="evenodd"
          d="M400.664 107C400.664 96.1261 396.344 85.6976 388.655 78.0086C380.966 70.3196 370.538 66 359.664 66H168.331C157.457 66 147.028 70.3196 139.339 78.0086C131.65 85.6976 127.331 96.1261 127.331 107V243.667C127.331 254.541 131.65 264.969 139.339 272.658C147.028 280.347 157.457 284.667 168.331 284.667H273.113L318.664 318.833C329.925 327.279 345.997 319.243 345.997 305.167V284.667H359.664C370.538 284.667 380.966 280.347 388.655 272.658C396.344 264.969 400.664 254.541 400.664 243.667V107Z"
          fill="#D4F3FF"/>
    <g filter="url(#filter0_d_9_74587)">
        <rect x="32" y="28" width="273" height="212" rx="31" fill="white"/>
        <path d="M179.09 70.3877C177.126 69.6442 175.139 69.2558 173.141 69.2558C171.237 69.2558 169.349 69.578 167.488 70.2061L167.475 70.2106C165.422 70.9162 163.556 72.1832 161.863 73.8869C161.861 73.8886 161.859 73.8902 161.858 73.8919L85.2472 150.032L85.2411 150.038L85.235 150.045C83.7407 151.55 82.586 153.182 81.8603 154.952L81.8532 154.969L81.8465 154.986C81.1674 156.715 80.8392 158.554 80.8392 160.481V176.755C80.8392 180.885 82.2303 184.459 85.0597 187.289C87.8877 190.117 91.4562 191.509 95.5787 191.509H98.0787V191.494H111.853C113.779 191.494 115.616 191.166 117.337 190.485L117.346 190.481C119.141 189.763 120.783 188.6 122.285 187.087C122.285 187.087 122.286 187.086 122.287 187.085L198.448 110.848L198.508 110.788L198.564 110.724C200.032 109.04 201.168 107.232 201.932 105.298L201.934 105.293C202.684 103.381 203.077 101.439 203.077 99.4805C203.077 97.5199 202.684 95.6009 201.92 93.7389C201.162 91.8828 200.068 90.1229 198.672 88.4564L198.612 88.3849L198.547 88.318L184.518 73.9096L184.509 73.9012L184.501 73.8928C182.955 72.3343 181.144 71.1614 179.09 70.3877ZM179.09 70.3877C179.091 70.388 179.091 70.3882 179.092 70.3885L178.207 72.7265L179.088 70.3868C179.088 70.3871 179.089 70.3874 179.09 70.3877ZM163.926 187.226L159.659 191.494L251.492 176.011L253.266 174.25C253.265 174.249 253.265 174.249 253.264 174.248C251.321 172.293 248.866 171.327 246.077 171.327H180.861H179.825L179.093 172.06L163.926 187.226ZM78.6678 237.833H77.6323L76.9001 238.566L51.0561 264.41C49.4187 266.047 47.7803 266.934 46.1412 267.259C44.5015 267.585 42.6422 267.392 40.4911 266.505C38.3439 265.62 36.8938 264.443 35.9642 263.05C35.034 261.655 34.5 259.856 34.5 257.517V52.4942C34.5 46.1409 36.6045 40.9663 40.788 36.7918L40.7918 36.788C44.9663 32.6045 50.1409 30.5 56.4942 30.5H280.506C286.859 30.5 292.034 32.6045 296.208 36.788L296.212 36.7918C300.395 40.9663 302.5 46.1409 302.5 52.4942V215.839C302.5 222.194 300.399 227.376 296.223 231.56C292.039 235.734 286.859 237.833 280.506 237.833H78.6678ZM183.675 99.854L173.026 110.72L162.183 99.945L173.117 89.0106L183.675 99.854Z"
              fill="white" stroke="#5DC9F4" stroke-width="5"/>
    </g>
    <ellipse cx="221" cy="376.5" rx="117" ry="11.5" fill="#E4E4E4"/>
    <defs>
        <filter id="filter0_d_9_74587" x="0" y="0" width="337" height="305.906" filterUnits="userSpaceOnUse" color-interpolation-filters="sRGB">
            <feFlood flood-opacity="0" result="BackgroundImageFix"/>
            <feColorMatrix in="SourceAlpha" type="matrix" values="0 0 0 0 0 0 0 0 0 0 0 0 0 0 0 0 0 0 127 0" result="hardAlpha"/>
            <feOffset dy="4"/>
            <feGaussianBlur stdDeviation="16"/>
            <feComposite in2="hardAlpha" operator="out"/>
            <feColorMatrix type="matrix" values="0 0 0 0 0 0 0 0 0 0 0 0 0 0 0 0 0 0 0.12 0"/>
            <feBlend mode="normal" in2="BackgroundImageFix" result="effect1_dropShadow_9_74587"/>
            <feBlend mode="normal" in="SourceGraphic" in2="effect1_dropShadow_9_74587" result="shape"/>
        </filter>
    </defs>
</svg>
