<svg width="148" height="27" viewBox="0 0 148 27" fill="none" xmlns="http://www.w3.org/2000/svg">
    <path d="M48.8496 11.4534C49.7655 10.7023 50.6814 9.9512 51.5973 9.19859C50.9352 11.3213 49.7135 12.9616 47.5908 13.8211C47.3162 13.9324 47.0178 13.9844 46.7372 14.0853C45.9178 14.3793 45.7382 15.0487 46.3765 15.6633C48.287 17.5055 49.8872 19.6045 51.4637 21.7183C52.2341 22.7514 53.4602 23.2309 54.3108 24.4749C54.336 23.8187 54.722 23.3764 53.9174 23.1819C53.4305 23.0647 53.2851 22.6208 53.3994 22.1117C53.9902 19.4976 53.9991 16.8108 54.3895 14.1744C54.5305 13.2229 54.5899 11.9433 55.1317 11.4074C56.2123 10.3371 55.7833 9.08132 56.1396 7.95464C56.2539 7.5954 56.2257 7.19609 55.6512 7.19015C54.5171 7.17679 54.6255 6.65576 55.2712 5.90167C54.3049 5.80221 53.9857 5.29454 54.1713 4.45138C54.3553 3.61713 54.2128 2.56763 55.5176 2.49638C55.8323 2.47857 56.248 2.36427 56.2777 2.11785C56.3949 1.16188 57.3064 1.33407 57.82 0.965932C58.1184 0.752174 58.6231 0.712098 58.8621 1.01641C59.4543 1.77347 60.1268 1.48548 60.8705 1.38454C61.9734 1.23462 62.9146 0.709127 64.2357 1.00453C66.0155 1.40087 67.9854 0.942182 69.8751 0.864992C70.5757 0.836788 70.4822 0.841245 70.3857 1.51815C70.31 2.04066 70.549 2.54982 70.3976 3.15844C70.2209 3.87245 69.2917 4.32669 69.7177 5.26336C69.8469 5.54837 69.4238 5.56916 69.1002 5.58994C66.8171 5.74729 64.5088 5.70127 62.2718 6.27426C61.7359 6.41083 61.2104 6.63201 60.722 6.89179C59.5271 7.52861 58.8279 9.35594 59.2525 10.6029C59.4202 11.0987 59.8091 10.8567 60.0927 10.8374C61.9155 10.7142 63.7369 10.5628 65.5583 10.4218C65.9547 10.3906 66.3688 10.2704 66.7177 10.6385C66.2857 11.0823 65.6875 10.5806 65.1798 10.974C65.7454 11.3733 66.8513 11.115 66.6301 12.3901C66.3421 14.0571 64.9349 12.9245 64.1986 13.5287C64.6855 13.8716 65.211 13.6326 65.6904 13.7068C65.8983 13.738 66.1833 13.6355 66.2516 13.9265C66.3273 14.2457 66.0764 14.4089 65.8211 14.4802C64.6736 14.7979 63.5202 15.1007 62.3653 15.3961C61.969 15.497 61.5622 15.5609 61.16 15.6455C58.3648 16.2303 58.3262 16.5317 58.4479 19.5287C58.5399 21.7762 58.4524 24.1409 56.6414 25.9355C56.5152 26.0617 56.3742 26.3081 56.2643 26.2948C54.6418 26.1092 53.1425 27.1335 51.5023 26.7609C51.2306 26.6985 51.0243 26.5724 50.8209 26.4121C47.0905 23.4729 43.9999 20.0186 42.0331 15.6559C41.9024 15.3649 41.846 14.8943 41.4809 14.9003C41.0281 14.9077 40.8292 15.3545 40.709 15.7523C40.4284 16.6861 40.3913 17.6509 40.4121 18.6158C40.4388 19.8286 40.6704 21.0755 39.6713 22.0805C39.5659 22.1859 39.5852 22.4249 39.5704 22.6045C39.5452 22.9103 40.2428 23.3734 39.3863 23.4907C38.7777 23.5738 38.3472 23.3957 38.3918 22.6639C38.3977 22.5763 38.2982 22.4813 38.2077 22.3195C37.8381 22.6935 37.7683 23.608 37.0706 23.219C36.3759 22.8316 35.6381 22.1488 35.6901 21.3397C35.9321 17.5782 36.796 13.9206 37.8039 10.2184C38.1825 10.5375 37.8217 10.9873 38.3264 11.348C38.8371 9.33218 39.324 7.40688 39.8124 5.48305C39.1473 6.0887 38.3918 6.07535 37.6213 6.03527C37.4106 6.02339 37.2027 5.94175 37.1864 5.76807C37.173 5.63002 37.323 5.4029 37.4581 5.34055C37.939 5.11789 38.4467 4.94866 39.0078 4.73342C38.7065 4.37716 38.3962 4.46474 38.1542 4.56865C37.3497 4.91304 36.9801 4.15746 36.4264 3.90214C36.1384 3.76854 36.2512 3.49095 36.5511 3.32321C40.3052 1.2079 44.1454 -0.122154 48.4028 1.91449C50.7526 3.0382 51.7086 4.73787 51.3954 7.29703C51.3226 7.89377 50.8803 8.26933 50.5671 8.71169C49.9451 9.59048 49.2593 10.4232 48.5987 11.2768C48.5943 11.3673 48.5883 11.4594 48.5839 11.5499C48.6759 11.5173 48.762 11.4846 48.8496 11.4534ZM41.8267 11.0972C44.5329 10.0432 46.8367 8.75771 48.6032 6.6899C49.0886 6.12136 48.7486 5.49345 48.1385 5.11047C47.3102 4.58943 46.3765 4.29997 45.4369 4.07137C44.6145 3.87245 43.3691 4.47364 43.2221 5.09265C42.7604 7.01944 42.3225 8.95217 41.8267 11.0972ZM62.7528 4.69334C62.7617 4.81061 62.772 4.92788 62.781 5.04515C64.8562 4.84921 66.9314 4.65326 69.0067 4.45732C68.9992 4.36083 68.9918 4.26582 68.9859 4.16934C66.8631 3.66463 64.8235 4.40684 62.7528 4.69334ZM69.6093 1.69776C69.6019 1.59978 69.5945 1.5033 69.5856 1.40533C68.165 1.19454 66.783 1.46767 65.395 1.67252C65.4039 1.78534 65.4129 1.89964 65.4218 2.01245C66.8171 1.90854 68.214 1.80315 69.6093 1.69776ZM54.8778 15.9884C54.8778 16.9562 54.8778 17.9241 54.8778 18.8934C55.0842 18.2967 55.1317 17.6881 55.1391 17.0794C55.1436 16.7202 55.2905 16.3491 54.8778 15.9884Z"
          fill="white"/>
    <path d="M136.231 1.90073C139.55 0.913585 142.761 1.01304 145.812 2.82108C146.088 2.98585 146.325 2.97101 146.216 3.49353C146.063 4.2209 146.967 4.61427 147.166 5.2882C146.814 5.58064 146.591 5.05367 146.153 5.17242C146.441 7.21945 146.729 9.2739 147.022 11.358C147.773 11.0938 147.088 10.1289 147.976 10.0176C147.992 10.5312 148.05 11.0181 147.912 11.5243C147.226 14.0226 145.969 16.2982 144.844 18.5902C144.082 20.1429 142.369 21.1167 140.866 22.0934C137.416 24.3349 132.505 23.8614 129.829 20.7307C127.95 18.5338 126.538 15.9553 127.308 12.8469C127.584 11.7321 128.01 10.6307 129.036 9.72517C129.05 10.7539 128.138 11.4263 128.309 12.4446C128.465 12.3496 128.594 12.317 128.619 12.2487C129.83 8.91764 132.164 6.3941 134.622 3.95073C134.918 3.65681 135.465 3.4861 135.387 2.90272L135.366 2.9146C135.667 3.12687 135.764 2.92202 135.842 2.68154L135.814 2.70233C135.967 2.68451 136.159 2.70382 136.062 2.44701L136.034 2.47669C136.268 2.52419 136.344 2.42919 136.282 2.20801C136.264 2.10558 136.248 2.00316 136.231 1.90073ZM143.549 7.96464C143.535 5.93542 143.527 5.97104 141.544 5.51977C140.432 5.26594 139.415 5.55243 138.378 5.82557C138.295 5.84783 138.195 5.76916 138.165 5.95471C137.987 7.03241 137.014 7.47477 136.233 7.77462C134.874 8.29714 134.138 9.29469 133.534 10.4422C132.706 12.0127 132.044 13.6693 131.643 15.3957C131.303 16.8638 132.171 17.9014 133.163 18.8811C134.002 19.7095 134.901 19.7703 135.92 19.3769C137.579 18.7372 138.744 17.4902 139.847 16.178C141.856 13.7866 143.483 11.2185 143.549 7.96464ZM143.549 11.4738C143.113 12.4343 142.714 13.3145 142.288 14.2512C142.828 14.3447 143.282 14.4056 143.425 13.8192C143.6 13.0919 144.494 12.412 143.549 11.4738ZM127.736 14.9133C127.859 15.2265 127.494 15.9746 127.982 15.9613C128.616 15.9434 128.258 15.1879 128.34 14.7559C128.374 14.5778 128.341 14.3863 128.346 14.2007C128.352 13.9885 128.269 13.8459 128.043 13.8267C127.792 13.8059 127.737 13.9706 127.736 14.174C127.736 14.3967 127.736 14.6193 127.736 14.9133Z"
          fill="white"/>
    <path d="M71.447 15.5901C71.9561 14.7365 72.0526 13.9453 71.8537 12.8765C71.6904 12.0022 71.9918 10.88 72.1254 9.87206C72.2516 8.91609 72.5232 7.96012 72.498 7.0086C72.4816 6.35842 73.5252 6.68053 73.2328 5.88191C72.7355 4.5192 73.3946 3.1847 73.54 1.83684C73.5712 1.55183 73.5415 1.46573 74.021 1.4687C78.0097 1.49394 81.9998 1.40635 85.9885 1.31729C86.9044 1.2965 87.6763 1.64386 87.9865 2.4024C88.273 3.10454 86.9489 4.44053 86.0449 4.48951C83.7366 4.61569 81.4268 4.70921 79.1185 4.8146C78.933 4.82351 78.7444 4.81015 78.5619 4.83539C78.3051 4.86953 77.9844 4.89625 77.9844 5.23321C77.9844 5.62956 78.3437 5.53604 78.5782 5.53901C79.9038 5.5583 81.2309 5.54791 82.5491 6.00215C81.1611 6.16247 79.7761 6.36139 78.3837 6.46381C77.7974 6.50686 77.5213 6.63155 77.4767 7.27431C77.4114 8.22879 76.7909 9.5054 77.2021 10.0368C77.6816 10.6558 78.9983 10.0576 79.9513 10.0101C81.6257 9.9255 83.2942 9.75479 84.9672 9.62565C85.2195 9.60635 85.5431 9.53658 85.5921 9.88987C85.604 9.97894 85.2908 10.1111 84.9583 10.3411C85.6055 10.4836 86.0894 10.5905 86.5733 10.6959C86.7841 10.7419 87.0959 10.7152 87.0959 10.9928C87.0959 11.1769 86.9281 11.4144 86.7648 11.5346C86.1295 12.0037 85.3828 12.265 84.6302 12.4728C81.9924 13.2031 79.3026 13.6069 76.5623 13.6099C76.0428 13.6099 75.8275 13.6292 75.6732 14.2912C75.4164 15.3912 74.9755 16.4852 74.2051 17.7232C74.162 16.6158 74.4797 15.7994 74.0388 14.9533C73.8503 16.1824 73.6306 17.407 73.4911 18.6406C73.4406 19.0815 73.8369 18.8826 74.0655 18.8544C77.3981 18.4343 80.7351 18.0424 84.1003 17.9889C85.0711 17.9741 86.0434 17.9489 86.983 18.2635C87.3245 18.3779 87.3779 18.4343 87.2992 18.9256C86.9459 21.1359 85.3086 20.7975 83.8316 20.8568C83.695 20.8628 83.5614 20.9207 83.2972 20.9875C84.0008 21.4224 84.6851 21.2116 85.2967 21.3675C85.46 21.4091 85.7109 21.2918 85.7524 21.5441C85.8044 21.847 85.5402 21.9004 85.3205 21.9301C84.0632 22.1023 82.8044 22.2552 81.5471 22.4303C78.4787 22.8564 75.4119 23.2869 72.3466 23.7307C71.9265 23.7916 71.5257 23.7723 71.1293 23.655C70.497 23.468 70.0635 23.1547 70.2713 22.3769C70.5266 21.4194 70.7315 20.4501 71.1308 19.4585C71.1917 19.6871 71.2525 19.9157 71.3149 20.1443C71.5331 19.506 72.3302 19.1082 72.0571 18.2992C72.1046 17.6906 72.066 17.0582 72.2219 16.4763C72.4297 15.7014 72.0051 15.6257 71.447 15.5901Z"
          fill="white"/>
    <path d="M19.0584 13.4154C19.3182 11.2363 19.192 8.91165 19.9579 6.92548C20.5977 5.26589 20.0589 3.57511 20.7818 2.03131C20.9362 1.70176 20.8219 1.49098 21.4557 1.47168C25.3687 1.3559 29.2846 1.42269 33.1961 1.32175C34.1387 1.298 35.0041 1.56371 35.2624 2.42913C35.5222 3.29752 34.2723 4.44796 33.2109 4.5014C31.3495 4.59492 29.488 4.65876 27.6265 4.73892C27.0327 4.76415 26.4375 4.79532 25.8452 4.84282C25.5869 4.8636 25.2648 4.9022 25.2707 5.23917C25.2782 5.62512 25.6285 5.53159 25.8704 5.53902C27.1946 5.58355 28.5276 5.5123 29.9378 5.92052C28.4667 6.30944 27.0417 6.30499 25.6463 6.45937C25.0421 6.52617 24.8002 6.68204 24.7616 7.29956C24.7037 8.24959 24.1411 9.47128 24.5493 10.0606C24.9531 10.644 26.2742 10.0636 27.1931 10.0161C28.866 9.92997 30.536 9.76519 32.2075 9.63011C32.5088 9.60636 32.8873 9.54401 32.9809 9.88543C33.0818 10.2536 32.3737 9.84981 32.4494 10.3842C32.773 10.4614 33.1323 10.5119 33.4633 10.6351C33.7839 10.7538 34.348 10.5237 34.3881 11.021C34.4237 11.4634 33.9383 11.6608 33.5731 11.8404C32.0843 12.5708 30.4737 12.9137 28.8541 13.1631C27.2346 13.4124 25.6077 13.7004 23.957 13.6039C23.3766 13.5698 23.1836 13.7093 23.0144 14.3209C22.716 15.3971 22.1757 16.408 21.5819 17.4234C21.5819 16.6262 21.5819 15.8291 21.5819 15.0305C21.101 15.6821 21.0861 16.4644 20.9837 17.2126C20.7581 18.8677 20.7759 18.893 22.4607 18.7089C25.3539 18.3927 28.2411 18.032 31.1565 18.0023C31.7903 17.9964 32.4272 17.986 33.0581 18.0394C33.6919 18.0928 34.3851 18.0513 34.8156 18.6792C34.0749 18.979 34.7236 19.8534 34.1595 20.2378C33.7869 20.4917 33.4143 20.7262 32.9497 20.7678C32.5415 20.8049 32.1303 20.8227 31.7295 20.8999C31.3895 20.9652 30.9932 20.6416 30.6874 21.0662C31.2738 21.3913 31.9329 21.2191 32.534 21.3675C32.7241 21.415 33.0298 21.2354 33.0714 21.5679C33.1219 21.9761 32.7448 21.9108 32.5207 21.942C30.0476 22.2953 27.5716 22.6322 25.097 22.9737C23.3232 23.2186 21.5507 23.4843 19.7739 23.701C17.7239 23.9519 17.2192 23.37 17.7521 21.4328C17.9376 20.7559 18.1262 20.0805 18.3117 19.4036C18.4023 19.4125 18.4913 19.4199 18.5819 19.4288C18.6799 19.6456 18.3162 19.9944 18.6888 20.0894C19.0168 20.174 18.8906 19.797 18.9753 19.6277C19.4829 18.6168 19.3271 17.5139 19.4265 16.4466C19.4325 16.3754 19.4325 16.2581 19.3924 16.2358C18.475 15.7118 19.3508 15.0795 19.281 14.5065C19.2959 14.1265 19.6833 13.6678 19.0584 13.4154Z"
          fill="white"/>
    <path d="M113.385 17.8413C112.845 17.2728 112.852 16.0838 113.459 15.4276C113.671 15.199 113.875 15.0313 113.83 14.6914C113.489 12.0862 114.619 9.67844 114.866 7.14897C115.006 5.71946 115.092 5.7061 113.698 5.859C112.094 6.03565 110.505 5.72243 108.886 5.68828C109.616 5.14647 110.507 5.30679 111.32 5.23257C112.321 5.14202 113.336 5.20881 114.345 5.21475C114.696 5.21772 115.04 5.2489 115.004 4.73083C114.964 4.15933 114.555 4.35675 114.258 4.38496C113.143 4.49481 112.033 4.70559 110.918 4.73231C109.94 4.75606 108.97 4.66255 107.979 4.79318C107.477 4.85998 106.886 4.45918 107.152 3.68579C107.201 3.54625 107.268 3.40375 107.275 3.25976C107.364 1.68775 107.567 1.43836 109.203 1.37601C114.497 1.17265 119.792 0.993034 125.087 0.840138C125.637 0.823809 126.196 0.578875 126.745 0.808961C127.005 0.917325 127.457 0.844587 127.474 1.20679C127.497 1.72634 126.913 1.35226 126.651 1.6447C127.646 2.58434 126.813 2.94358 126.075 3.25382C125.029 3.69173 123.895 3.70954 122.778 3.78821C122.222 3.82829 121.664 3.88025 121.111 3.95744C120.486 4.04502 119.916 4.13409 120.264 5.06186C120.374 5.35726 120.011 5.80853 119.916 6.2019C118.61 11.5726 117.734 17.0249 116.83 22.4698C116.633 23.6633 117.399 24.8211 117.541 26.0324C117.553 26.1289 117.553 26.2269 117.568 26.4852C116.47 25.7519 116.37 24.6682 116.293 23.6989C116.211 22.6835 116.431 21.6429 116.523 20.5623C115.37 21.0833 115.11 21.8686 115.396 22.9982C115.64 23.9631 115.71 24.974 115.836 25.9656C115.862 26.1749 115.879 26.4807 115.759 26.5906C115.548 26.7835 115.284 26.592 115.046 26.4807C114.627 26.2848 114.4 25.6138 113.712 26.0413C113.483 26.1838 113.352 25.7281 113.269 25.5069C112.996 24.781 112.71 24.0537 112.534 23.3025C112.454 22.9581 111.807 22.4045 112.816 22.1759C113.153 22.1002 112.711 21.5361 112.661 21.1917C112.595 20.7508 112.2 20.3619 112.952 20.0427C113.477 19.8201 113.136 19.1892 113.149 18.7364C113.582 18.3386 113.563 18.7617 113.557 18.9873C113.536 19.7043 113.477 20.4213 113.43 21.2006C114.203 20.5341 114.498 18.0373 113.977 17.2386C113.471 17.1496 114.172 18.1783 113.385 17.8413Z"
          fill="white"/>
    <path d="M92.964 5.12591C94.1367 4.3065 95.2129 3.36537 96.4405 2.60831C99.0383 1.00661 102.056 1.31983 104.25 3.52124C104.643 3.9161 105.004 4.34213 105.406 4.78152C104.928 5.88742 104.093 5.26545 103.224 5.18083C101.143 4.97747 99.1882 5.57272 97.4039 6.65932C95.3628 7.90179 94.0001 9.76475 92.9343 11.8177C92.391 12.8657 92.244 14.083 92.5246 15.2957C92.765 16.3334 93.0456 17.3725 93.1584 18.4264C93.2326 19.1092 93.5295 19.2043 94.0788 19.133C94.7037 19.0514 95.3316 18.9801 95.9566 18.9044C96.0783 18.9831 96.2 19.0632 96.3203 19.1419C96.0783 19.2221 95.8349 19.3007 95.3747 19.4522C96.5221 19.8203 97.3861 19.4596 98.1713 19.1167C99.923 18.3492 101.303 17.0385 102.688 15.7619C103.079 15.4011 103.233 14.5743 104.027 15.1369C104.697 15.6104 104.82 16.605 104.234 17.2685C103.5 18.0969 102.599 18.753 101.715 19.4195C101.051 19.9198 100.428 20.4705 99.7671 20.9722C99.5994 21.0999 99.4435 21.229 99.543 21.4071C99.7196 21.7218 99.9319 21.4413 100.097 21.3596C101.195 20.8163 102.341 20.3577 103.343 19.6318C103.532 19.4952 103.714 19.2607 104.09 19.421C103.891 20.034 103.322 20.3027 102.878 20.61C101.266 21.7263 99.5148 22.4982 97.4989 22.5769C97.2213 22.5873 96.4123 22.2206 96.73 23.1989C96.8339 23.5195 96.3425 23.4364 96.1214 23.4542C94.6978 23.5729 93.6839 22.7446 92.6804 21.9222C92.3108 21.6194 91.9753 21.2735 91.625 20.9485C91.5567 20.7258 91.4142 20.702 91.2257 20.8C91.3044 20.8995 91.3845 20.9989 91.4632 21.0984C91.7185 21.5304 91.8358 22.0455 92.2722 22.3646C92.5483 22.5665 92.6582 22.8916 92.4251 23.1172C92.2217 23.3146 91.8699 23.2686 91.6057 23.0786C89.9268 21.8688 88.6443 20.322 88.5107 18.2305C88.3489 15.7099 88.1217 13.1567 88.7036 10.651C89.0109 9.32981 89.4384 8.03837 90.4479 7.03934C90.4998 7.22638 90.4909 7.52327 90.767 7.45647C90.9897 7.40154 90.9229 7.11356 90.9392 6.91465C91.7066 6.41885 92.3153 5.74937 92.964 5.12591ZM89.6774 19.8322C89.7338 19.1538 89.7175 18.4769 89.2143 17.5877C89.1 18.6031 89.1282 19.2607 89.6774 19.8322Z"
          fill="white"/>
    <path d="M2.19875 13.0001C1.79944 12.5577 1.66287 12.9155 1.55599 13.4187C1.38825 12.8205 1.58568 12.4405 1.5931 12.0486C1.59755 11.8215 1.33036 11.5127 1.7742 11.4563C2.18836 11.4044 2.10226 11.7517 2.13195 11.9937C2.15125 12.1614 2.09929 12.3722 2.35313 12.4212C2.40954 12.3781 2.49564 12.3455 2.50751 12.2965C2.70939 11.4711 2.33383 10.5835 2.91424 9.76554C3.12949 9.46272 3.10128 8.80659 2.52236 8.54385C2.175 8.6819 2.49118 9.11535 2.05921 9.31575C1.93749 8.18165 1.33184 7.4038 0.506498 6.64229C-0.46432 5.74718 0.0552318 3.98219 1.26207 3.44483C2.01023 3.11232 2.77025 2.80207 3.49614 2.428C4.1864 2.07025 4.415 1.55664 3.53919 1.19444C3.01667 0.97771 2.90237 0.637771 3.05823 0.26221C3.27645 -0.263279 3.55255 0.134548 3.8242 0.308227C3.9385 0.380964 4.16265 0.284475 4.33781 0.260724C5.32199 0.122672 6.18148 0.176116 6.1503 1.62937C6.69954 1.21522 7.12112 0.266665 7.65255 1.44233C7.78169 1.72883 8.22554 1.60711 8.48828 1.53437C9.58231 1.23154 10.6273 1.50914 11.6813 1.72289C12.4116 1.86985 13.1256 1.90845 13.8783 1.73922C15.7353 1.32358 17.5522 2.96387 17.3993 4.84613C17.3266 5.73976 17.6858 6.67792 17.1277 7.51662C17.0267 7.66952 17.0965 8.24103 16.617 7.63835C16.2311 7.15294 16.139 7.89367 16.0247 8.1193C15.1029 9.95257 14.049 11.679 12.3998 12.9734C8.99893 12.9838 5.59958 12.9912 2.19875 13.0001ZM12.572 8.1668C12.4369 8.25587 12.3033 8.34493 12.1682 8.434C11.7867 8.64924 11.4171 8.88972 11.0222 9.07379C10.1494 9.48052 9.47691 10.3222 8.39328 10.2673C9.27652 9.60967 10.1894 8.98769 11.0341 8.28556C11.8639 7.5953 12.7248 6.90949 13.3379 5.84367C12.0064 5.77984 10.8693 5.86 9.7263 6.0218C6.9519 6.41369 6.6847 6.64229 6.2364 9.29943C5.96624 10.9011 6.0271 10.956 7.53825 10.4959C7.74755 10.432 7.96428 10.3489 8.181 10.4825C7.5709 11.2559 6.36555 11.2054 5.88904 12.1822C8.42445 11.6864 10.6066 10.5612 12.3285 8.60916C12.4547 8.50525 12.5794 8.40283 12.7056 8.29892C12.7516 8.24993 12.8436 8.16829 12.8347 8.15641C12.7471 8.04063 12.6566 8.08813 12.572 8.1668Z"
          fill="#45A8E5"/>
    <path d="M2.2013 13.0003C5.60064 12.9929 9.00147 12.984 12.4008 12.9766C10.6329 14.7519 8.21769 15.2938 6.02222 16.2379C5.33938 16.5318 4.92671 16.7396 4.95046 17.6035C4.99499 19.183 4.63428 20.7683 4.99648 22.3478C5.03953 22.5363 5.04843 22.7129 4.89554 22.8599C4.22606 23.4982 3.98855 24.3651 3.66198 25.183C3.40072 25.8362 3.0118 26.0455 2.38685 25.6046C2.2681 25.52 2.12559 25.4487 1.98457 25.4176C0.743585 25.1444 0.397712 24.4304 0.868277 23.2711C0.97664 23.0024 1.12508 22.6016 0.892028 22.425C-0.282156 21.5284 0.323491 20.4432 0.51053 19.4071C0.847496 17.5531 0.577329 15.6144 1.3433 13.9043C2.44623 14.4595 2.02316 13.4026 2.2013 13.0003Z"
          fill="white"/>
    <path d="M96.3324 19.1449C96.2107 19.0663 96.089 18.9861 95.9688 18.9074C98.6778 17.9144 100.75 16.0306 102.806 14.1172C101.21 16.5056 99.2256 18.3983 96.3324 19.1449Z" fill="#FCFAFA"/>
    <path d="M113.387 17.8386C114.174 18.1756 113.473 17.1469 113.979 17.236C114.5 18.0346 114.203 20.5314 113.432 21.1979C113.479 20.4186 113.54 19.7031 113.559 18.9846C113.565 18.759 113.584 18.3345 113.151 18.7338C112.946 18.7189 112.63 18.7842 112.599 18.5452C112.529 17.9975 113.21 18.1756 113.387 17.8386Z"
          fill="#D7D7D7"/>
    <path d="M71.4421 15.5898C72.0002 15.624 72.4233 15.7012 72.2169 16.476C72.0611 17.0565 72.0997 17.6888 72.0522 18.2989C71.1496 17.3949 70.9492 16.5013 71.4421 15.5898Z" fill="#D7D7D7"/>
    <path d="M92.9708 5.12571C92.3221 5.74917 91.7135 6.41716 90.949 6.91445C90.8035 6.79421 90.6477 6.80162 90.4844 6.87288C91.0485 6.15144 91.5829 5.40478 92.2894 4.8021C92.8001 4.36865 92.9901 4.50819 92.9708 5.12571Z"
          fill="#D7D7D7"/>
    <path d="M26.1095 14.3592C25.2693 14.377 24.4187 14.7244 23.5859 14.2182C24.4514 14.0787 25.3064 13.8842 26.1896 14.1009C26.1614 14.187 26.1362 14.2731 26.1095 14.3592Z" fill="#FCFAFA"/>
    <path d="M147.631 7.5011C147.648 7.78315 147.744 8.11714 147.349 8.1023C146.85 8.083 147.11 7.66885 147.082 7.42688C147.055 7.19828 146.959 6.83163 147.354 6.85241C147.812 6.87616 147.591 7.28586 147.631 7.5011Z"
          fill="#FCFAFA"/>
    <path d="M75.9844 14.1473C77.0739 14.0241 77.9156 13.9499 78.7632 14.1355C77.9216 14.2409 77.0932 14.9059 75.9844 14.1473Z" fill="#FCFAFA"/>
    <path d="M38.7945 6.42188C39.0379 7.27097 38.7277 7.82763 38.5006 8.73462C38.2868 7.77865 38.3848 7.19526 38.7945 6.42188Z" fill="#FCFAFA"/>
    <path d="M136.224 1.90234C136.241 2.00477 136.257 2.1072 136.272 2.21111C136.154 2.269 135.969 2.26455 136.024 2.47979L136.052 2.4501C135.877 2.44713 135.654 2.39666 135.804 2.70543L135.832 2.68464C135.519 2.4501 135.409 2.62527 135.356 2.9177L135.377 2.90582C135.114 2.62229 134.835 3.10473 134.516 2.8316C134.905 2.19775 135.584 2.08344 136.224 1.90234Z"
          fill="#FCFAFA"/>
    <path d="M26.1094 14.3582C26.1361 14.2721 26.1628 14.186 26.1895 14.0999C26.9911 14.1222 27.8165 13.5819 28.7502 14.2647C27.7615 14.2216 26.9525 14.5542 26.1094 14.3582Z"
          fill="#45A8E5"/>
    <path d="M19.0548 13.4141C19.6797 13.6679 19.2908 14.1251 19.2789 14.5081C19.1141 14.5318 18.8351 14.6209 18.8024 14.5675C18.5411 14.1236 18.8558 13.7763 19.0548 13.4141Z"
          fill="#D7D7D7"/>
    <path d="M90.4956 6.87242C90.6574 6.80117 90.8148 6.79226 90.9603 6.91399C90.9454 7.1129 91.0122 7.40088 90.7881 7.45581C90.512 7.52409 90.5209 7.22572 90.4689 7.03868C90.4674 6.98227 90.4763 6.92586 90.4956 6.87242Z"
          fill="#FCFAFA"/>
    <path d="M18.5787 19.4306C18.4881 19.4217 18.3991 19.4143 18.3085 19.4054C18.3753 19.2005 18.1319 18.7923 18.4911 18.8175C18.8132 18.8413 18.6499 19.2035 18.5787 19.4306Z"
          fill="#FCFAFA"/>
    <path d="M104.764 18.9482C104.666 18.7909 104.57 18.7077 104.579 18.638C104.61 18.396 104.738 18.2208 105.021 18.2817C105.104 18.2995 105.174 18.3812 105.25 18.4346C105.104 18.589 104.959 18.7419 104.764 18.9482Z"
          fill="#FCFAFA"/>
    <path d="M62.7578 4.69157C64.8271 4.40507 66.8667 3.66286 68.9895 4.16757C68.9969 4.26406 69.0043 4.35906 69.0102 4.45555C66.935 4.65149 64.8598 4.84744 62.7845 5.04339C62.7771 4.92612 62.7682 4.80884 62.7578 4.69157Z"
          fill="#D7D7D7"/>
    <path d="M69.6049 1.69741C68.2096 1.8028 66.8142 1.9082 65.4174 2.01211C65.4084 1.89929 65.3995 1.78499 65.3906 1.67218C66.7786 1.46584 68.1606 1.19271 69.5812 1.40498C69.5886 1.50295 69.5975 1.60092 69.6049 1.69741Z"
          fill="#D7D7D7"/>
    <path d="M127.727 14.9126C127.727 14.6187 127.726 14.396 127.727 14.1734C127.729 13.97 127.782 13.8052 128.034 13.826C128.26 13.8453 128.343 13.9863 128.337 14.2001C128.333 14.3856 128.365 14.5756 128.331 14.7552C128.25 15.1872 128.606 15.9428 127.974 15.9606C127.487 15.9754 127.85 15.2273 127.727 14.9126Z"
          fill="#D7D7D7"/>
    <path d="M89.6884 19.8343C89.1406 19.2628 89.1124 18.6052 89.2252 17.5898C89.7284 18.479 89.7433 19.1559 89.6884 19.8343Z" fill="#D7D7D7"/>
    <path d="M8.3964 10.2617C8.45281 10.471 8.32069 10.4963 8.16334 10.4948C8.10099 10.2795 8.24499 10.2677 8.3964 10.2617Z" fill="#45A8E5"/>
</svg>
