<svg width="19" height="21" viewBox="0 0 19 21" fill="none" xmlns="http://www.w3.org/2000/svg">
    <g clip-path="url(#clip0_970_35886)">
        <path d="M14.0086 13.7089C16.4177 12.3429 18.244 11.302 18.4014 11.2211C18.905 10.9445 19.4251 10.2126 18.4014 9.64406C18.0709 9.46525 16.2916 8.45679 14.0086 7.15625L10.8438 10.4569L14.0086 13.7088V13.7089Z"
              fill="#FFD900"/>
        <path d="M10.8506 10.457L0.773438 20.945C1.00997 20.9773 1.27701 20.9126 1.59185 20.7339C2.25284 20.3602 9.25998 16.4086 14.0155 13.7098L10.8506 10.457Z" fill="#F43249"/>
        <path d="M10.8507 10.4574L14.0155 7.17302C14.0155 7.17302 2.30067 0.570975 1.59188 0.181249C1.32484 0.0179243 1.02559 -0.0305903 0.757812 0.0179243L10.8507 10.4574Z" fill="#00EE76"/>
        <path d="M10.8486 10.459L0.75577 0.0195312C0.346156 0.117327 0 0.491035 0 1.25531V19.7112C0 20.4107 0.267856 20.9145 0.77143 20.9631L10.8486 10.459Z" fill="#00D3FF"/>
    </g>
    <defs>
        <clipPath id="clip0_970_35886">
            <rect width="19" height="21" fill="white"/>
        </clipPath>
    </defs>
</svg>
