<svg width="28" height="24" viewBox="0 0 28 24" fill="none" xmlns="http://www.w3.org/2000/svg">
    <g id="Group">
        <path id="Vector"
              d="M15.222 19.3336H2.99958C2.67542 19.3336 2.36454 19.2048 2.13533 18.9756C1.90611 18.7464 1.77734 18.4355 1.77734 18.1113V2.22224C1.77734 1.89808 1.90611 1.5872 2.13533 1.35799C2.36454 1.12877 2.67542 1 2.99958 1H24.9999C25.324 1 25.6349 1.12877 25.8641 1.35799C26.0933 1.5872 26.2221 1.89808 26.2221 2.22224V18.1113C26.2221 18.4355 26.0933 18.7464 25.8641 18.9756C25.6349 19.2048 25.324 19.3336 24.9999 19.3336H20.1109M6.6663 5.88895H21.3332M6.6663 10.1668H10.333M6.6663 14.4446H9.11077"
              stroke="#5DC9F4" stroke-width="2" stroke-linecap="round" stroke-linejoin="round"/>
        <path id="Vector_2"
              d="M17.6667 17.4975C18.6392 17.4975 19.5718 17.1112 20.2595 16.4235C20.9471 15.7359 21.3334 14.8033 21.3334 13.8308C21.3334 12.8583 20.9471 11.9257 20.2595 11.238C19.5718 10.5504 18.6392 10.1641 17.6667 10.1641C16.6942 10.1641 15.7616 10.5504 15.074 11.238C14.3863 11.9257 14 12.8583 14 13.8308C14 14.8033 14.3863 15.7359 15.074 16.4235C15.7616 17.1112 16.6942 17.4975 17.6667 17.4975Z"
              stroke="#5DC9F4" stroke-width="2"/>
        <path id="Vector_3"
              d="M17.6671 21.7741L20.1116 22.9964V16.5625C20.1116 16.5625 19.4149 17.4963 17.6671 17.4963C15.9193 17.4963 15.2227 16.5796 15.2227 16.5796V22.9964L17.6671 21.7741Z"
              stroke="#5DC9F4" stroke-width="2" stroke-linecap="round" stroke-linejoin="round"/>
    </g>
</svg>
